<svg viewBox="0 0 1024 1024" style="background-color:#fff" xmlns="http://www.w3.org/2000/svg" width="1024" height="1024"><g visibility="hidden"><path d="M8 259.25C8 120.487 120.487 8 259.25 8h502.5C900.513 8 1013 120.487 1013 259.25v502.5C1013 900.513 900.513 1013 761.75 1013h-502.5C120.487 1013 8 900.513 8 761.75v-502.5z" stroke="#7fff00" stroke-width="20" fill="#fff"/><path d="M6 258.5C6 119.046 119.046 6 258.5 6h505C902.954 6 1016 119.046 1016 258.5v505c0 139.454-113.046 252.5-252.5 252.5h-505C119.046 1016 6 902.954 6 763.5v-505z" stroke="#7fff00" stroke-width="10" fill="none"/></g><path d="M997.333 170.667L997 590.595M550 501V173M550.123 173.732c0-35.199 100.035-63.732 223.438-63.732 123.404 0 223.44 28.533 223.44 63.732 0 35.198-100.036 63.731-223.44 63.731-123.403 0-223.438-28.533-223.438-63.731zM996.987 310.3c.009.233.013.466.013.7 0 35.199-100.035 63.732-223.438 63.732-115.11 0-209.887-24.827-222.107-56.732M996.993 447.746c.005.174.007.348.007.522C997 483.467 896.965 512 773.562 512c-110.16 0-201.698-22.738-220.077-52.656M997 590.595c-7.22 33.34-104.733 60.074-223.438 60.074-26.907 0-52.702-1.356-76.592-3.843" stroke="#777" stroke-width="28" fill="none"/><path d="M921.687 282.76c0-6.116 4.958-11.074 11.075-11.074 6.117 0 11.076 4.958 11.076 11.074 0 6.117-4.959 11.075-11.076 11.075-6.117 0-11.075-4.958-11.075-11.075zM921.687 424.512c0-6.116 4.958-11.074 11.075-11.074 6.117 0 11.076 4.958 11.076 11.074 0 6.117-4.959 11.075-11.076 11.075-6.117 0-11.075-4.958-11.075-11.075zM921.687 564.05c0-6.117 4.958-11.075 11.075-11.075 6.117 0 11.076 4.958 11.076 11.075 0 6.116-4.959 11.074-11.076 11.074-6.117 0-11.075-4.958-11.075-11.074z" stroke="#7fff00" stroke-width="18" fill="#7fff00"/><path stroke="#777" stroke-width="12" fill="#777" d="M170.488 884.585h339.01v22.411h-339.01z"/><path stroke="#777" stroke-width="12" fill="#777" d="M299.368 871.978h105.065V914H299.368z"/><path stroke="#777" stroke-width="12" fill="#777" d="M325.984 843.965h51.832v63.031h-51.832z"/><path d="M403.032 457.454c1.627-.054 3.262-.081 4.903-.081 49.634 0 92.236 23.045 118.026 60.953a145.9 145.9 0 0 1 24.862-2.124c79.303 0 143.59 63.651 143.59 142.17 0 77.696-62.943 140.833-141.095 142.15l-382.932.005C92.1 799.362 29 736.164 29 658.373c0-61.363 39.262-113.645 94.27-133.563-1.446-8.093-.412-19.013-.412-27.517 0-78.52 64.286-142.171 143.59-142.171 65.167 0 120.194 42.983 137.74 101.878" stroke="#4da6ff" stroke-width="28" fill="none"/><path d="M449.194 542.766c-22.645-14.777-49.766-23.377-78.916-23.377-1.64 0-3.275.028-4.903.082-10.705-39.296-35.935-69.133-71.92-87.134" stroke="#4da6ff" stroke-width="22" fill="none"/></svg>